<?xml version="1.0" encoding="UTF-8"?>
<!-- Generated by Pixelmator Pro 3.0.1 -->
<svg width="1200" height="180" viewBox="0 0 1200 180" xmlns="http://www.w3.org/2000/svg" xmlns:xlink="http://www.w3.org/1999/xlink">
    <filter id="filter1" x="0" y="0" width="1200" height="180" filterUnits="userSpaceOnUse" primitiveUnits="userSpaceOnUse" color-interpolation-filters="sRGB">
        <feGaussianBlur stdDeviation="7.558727"/>
        <feOffset dx="-0" dy="4.535236" result="offsetblur"/>
        <feFlood flood-color="#000000" flood-opacity="0.5"/>
        <feComposite in2="offsetblur" operator="in"/>
        <feMerge>
            <feMergeNode/>
            <feMergeNode in="SourceGraphic"/>
        </feMerge>
    </filter>
    <path id="Rounded-Rectangle-copy" fill="#000000" fill-rule="evenodd" stroke="#3f7dbc" stroke-width="3" stroke-linecap="round" stroke-linejoin="round" filter="url(#filter1)" d="M 1138.9375 15.609375 L 1144.65625 16.9375 L 1150.140625 18.796875 L 1155.375 21.140625 L 1160.3125 23.984375 L 1164.921875 27.265625 L 1169.203125 30.96875 L 1173.109375 35.078125 L 1176.59375 39.515625 L 1179.671875 44.3125 L 1182.28125 49.40625 L 1184.375 54.75 L 1185.984375 60.328125 L 1187 66.15625 L 1187.46875 72.109375 L 1187.46875 107.875 L 1187 113.828125 L 1185.984375 119.65625 L 1184.375 125.234375 L 1182.28125 130.578125 L 1179.671875 135.671875 L 1176.59375 140.484375 L 1171.203125 147 L 1164.9375 152.703125 L 1160.296875 156.015625 L 1152.8125 160.0625 L 1147.4375 162.1875 L 1141.84375 163.78125 L 1136.015625 164.8125 L 1128.578125 165.28125 L 71.40625 165.28125 L 63.9375 164.8125 L 55.34375 163.0625 L 49.828125 161.1875 L 42.125 157.484375 L 37.3125 154.40625 L 30.78125 149.015625 L 25.09375 142.734375 L 21.78125 138.09375 L 17.71875 130.609375 L 15.609375 125.234375 L 14 119.65625 L 12.984375 113.828125 L 12.53125 107.875 L 12.515625 73.609375 L 12.984375 66.171875 L 14 60.328125 L 15.609375 54.75 L 17.703125 49.390625 L 20.328125 44.3125 L 23.390625 39.515625 L 26.875 35.078125 L 30.78125 30.96875 L 35.0625 27.265625 L 39.671875 23.984375 L 44.609375 21.140625 L 49.84375 18.796875 L 55.328125 16.9375 L 61.046875 15.609375 L 71.390625 14.703125 L 1128.59375 14.703125 Z"/>
</svg>
