<?xml version="1.0" encoding="UTF-8"?>
<!-- Generated by Pixelmator Pro 3.0.1 -->
<svg width="600" height="300" viewBox="0 0 600 300" xmlns="http://www.w3.org/2000/svg" xmlns:xlink="http://www.w3.org/1999/xlink">
    <filter id="filter1" x="0" y="0" width="600" height="300" filterUnits="userSpaceOnUse" primitiveUnits="userSpaceOnUse" color-interpolation-filters="sRGB">
        <feGaussianBlur stdDeviation="8.990095"/>
        <feOffset dx="-0" dy="5.394057" result="offsetblur"/>
        <feFlood flood-color="#000000" flood-opacity="0.5"/>
        <feComposite in2="offsetblur" operator="in"/>
        <feMerge>
            <feMergeNode/>
            <feMergeNode in="SourceGraphic"/>
        </feMerge>
    </filter>
    <path id="Rounded-Rectangle-copy" fill="#000000" fill-rule="evenodd" stroke="#3f7dbc" stroke-width="3" stroke-linecap="round" stroke-linejoin="round" filter="url(#filter1)" d="M 551.03125 14.8125 L 558.828125 17.03125 L 565.90625 20.65625 L 572.109375 25.515625 L 577.265625 31.46875 L 581.203125 38.34375 L 583.78125 45.953125 L 584.71875 52.09375 L 584.71875 247.875 L 584.1875 252.015625 L 582.671875 257.890625 L 581.1875 261.65625 L 578.375 266.859375 L 576.0625 270.09375 L 572.09375 274.46875 L 567.5625 278.21875 L 564.1875 280.375 L 558.84375 282.9375 L 554.984375 284.25 L 549.015625 285.46875 L 544.859375 285.78125 L 56.15625 285.796875 L 48.953125 285.171875 L 41.171875 282.953125 L 35.765625 280.359375 L 29.34375 275.796875 L 23.921875 270.09375 L 20.578125 265.15625 L 17.3125 257.921875 L 15.78125 251.984375 L 15.15625 244.796875 L 15.15625 55.1875 L 15.78125 47.984375 L 18 40.1875 L 21.625 33.109375 L 26.484375 26.90625 L 32.4375 21.75 L 39.3125 17.8125 L 46.90625 15.25 L 50.984375 14.515625 L 56.171875 14.1875 L 543.828125 14.1875 Z"/>
</svg>
